<svg width="32" height="32" viewBox="0 0 32 32" fill="none" xmlns="http://www.w3.org/2000/svg">
  <!-- Orange gradient background -->
  <rect width="32" height="32" rx="6" fill="url(#orangeGradient)"/>
  
  <!-- White lock icon -->
  <path d="M16 8c-2.8 0-5 2.2-5 5v2c-1.1 0-2 0.9-2 2v8c0 1.1 0.9 2 2 2h10c1.1 0 2-0.9 2-2v-8c0-1.1-0.9-2-2-2v-2c0-2.8-2.2-5-5-5zm0 2c1.7 0 3 1.3 3 3v2h-6v-2c0-1.7 1.3-3 3-3z" fill="white"/>
  
  <!-- Gradient definition -->
  <defs>
    <linearGradient id="orangeGradient" x1="0%" y1="0%" x2="100%" y2="100%">
      <stop offset="0%" style="stop-color:#ff6b35;stop-opacity:1" />
      <stop offset="100%" style="stop-color:#ff8c42;stop-opacity:1" />
    </linearGradient>
  </defs>
</svg> 